<?xml version="1.0" encoding="utf-8"?>
<!-- Generator: Adobe Illustrator 22.1.0, SVG Export Plug-In . SVG Version: 6.00 Build 0)  -->
<svg version="1.1" id="Layer_1" xmlns="http://www.w3.org/2000/svg" xmlns:xlink="http://www.w3.org/1999/xlink" x="0px" y="0px"
	 viewBox="0 0 300 300" style="enable-background:new 0 0 300 300;" xml:space="preserve">
<style type="text/css">
	.st0{fill:#FFFFFF;}
	.st1{fill:#F9AE42;stroke:#F9AE42;stroke-miterlimit:10;}
	.st2{fill:#8159A4;}
	.st3{opacity:0.2;}
	.st4{fill:#FAAF40;}
	.st5{fill:#FFD065;}
	.st6{fill:#FFF5D8;}
	.st7{fill:#F2F2F2;}
	.st8{fill:#F9AE42;}
	.st9{fill:#FDD32F;}
	.st10{fill:#F9BD29;}
	.st11{fill:#CBCBCA;}
	.st12{fill:#954ED9;}
	.st13{fill:none;stroke:#FFFFFF;stroke-miterlimit:10;}
</style>
<path class="st0" d="M-1043.1-883.9c-10.7-11.6-25.4-18-41.3-18c-11.9,0-22.8,3.8-32.5,11.2c-4.9,3.8-9.2,8.3-13.1,13.7
	c-3.9-5.4-8.3-9.9-13.1-13.7c-9.6-7.4-20.5-11.2-32.5-11.2c-16,0-30.6,6.4-41.3,18c-10.6,11.5-16.4,27.1-16.4,44.1
	c0,17.5,6.5,33.5,20.5,50.3c12.5,15.1,30.5,30.4,51.3,48.1c7.1,6.1,15.2,12.9,23.5,20.2c2.2,1.9,5,3,8,3c2.9,0,5.8-1.1,8-3
	c8.4-7.3,16.4-14.2,23.5-20.2c20.8-17.7,38.8-33,51.3-48.1c14-16.9,20.5-32.9,20.5-50.3C-1026.7-856.8-1032.5-872.4-1043.1-883.9z"
	/>
<g>
	<g>
		<circle class="st0" cx="-763.1" cy="-810" r="5.9"/>
		<path class="st0" d="M-810-910c-55.1,0-100,44.9-100,100s44.9,100,100,100s100-44.9,100-100S-754.9-910-810-910z M-856.9-792.4
			c-9.7,0-17.6-7.9-17.6-17.6s7.9-17.6,17.6-17.6s17.6,7.9,17.6,17.6S-847.2-792.4-856.9-792.4z M-810-792.4
			c-9.7,0-17.6-7.9-17.6-17.6s7.9-17.6,17.6-17.6s17.6,7.9,17.6,17.6S-800.3-792.4-810-792.4z M-763.1-792.4
			c-9.7,0-17.6-7.9-17.6-17.6s7.9-17.6,17.6-17.6s17.6,7.9,17.6,17.6S-753.4-792.4-763.1-792.4z"/>
		<circle class="st0" cx="-810" cy="-810" r="5.9"/>
		<circle class="st0" cx="-856.9" cy="-810" r="5.9"/>
	</g>
</g>
<path class="st1" d="M-366.3-769.1h-233.5c-7.9,0-14.4-6.5-14.4-14.4v-17.8c0-7.9,6.5-14.4,14.4-14.4h233.5
	c7.9,0,14.4,6.5,14.4,14.4v17.8C-351.9-775.6-358.4-769.1-366.3-769.1z"/>
<g>
	<path class="st2" d="M-583.2-771.9c-7.7,6.3-31.8,6.3-39.4,0c-7.7-6.3-6.9-33.2,0-40.3s32.4-7.1,39.4,0S-575.5-778.2-583.2-771.9z"
		/>
	<g class="st3">
		<path class="st0" d="M-602.8-783c-6.9,5.5-14.6,8.3-21.9,8.5c-5.4-9.1-4.3-31.3,2-37.8c5.7-5.8,23.5-6.9,33.7-3.3
			C-586.4-805.2-591.6-791.9-602.8-783z"/>
	</g>
	<path class="st0" d="M-588-792.4c0,1.6-1.3,2.8-2.8,2.8h-9.4v9.4c0,1.6-1.3,2.8-2.8,2.8s-2.8-1.3-2.8-2.8v-9.4h-9.4
		c-1.6,0-2.8-1.3-2.8-2.8s1.3-2.8,2.8-2.8h9.4v-9.4c0-1.6,1.3-2.8,2.8-2.8s2.8,1.3,2.8,2.8v9.4h9.4C-589.2-795.2-588-794-588-792.4z
		"/>
</g>
<g>
	<path class="st4" d="M-170-909.9c-50.3,0-91,40.7-91,91c0,26,11,49.4,28.4,66l-3,50.7l43.2-28.5c7.2,1.8,14.6,2.9,22.4,2.9
		c50.3,0,91-40.8,91-91C-79-869.1-119.7-909.9-170-909.9z M-126.2-850.9h15.1l-10.7,44.3h-10.9L-126.2-850.9z M-128.9-801.7
		c4.8,0,8.1,3.4,8.1,8.2c0,5.6-4.1,9.6-9.6,9.6c-4.8,0-7.9-3.4-7.9-8C-138.3-797.1-134.4-801.7-128.9-801.7z M-145.2-853.7
		c4.1,0,7,2.7,7,6.9c0,5-3.8,7.9-8.3,7.9c-3.9,0-6.9-2.6-6.9-6.9C-153.2-850.4-149.5-853.7-145.2-853.7z M-141.2-832.8l-9.1,47.8
		h-14.1l9.1-47.8H-141.2z M-216.5-850.9h14.1l-4.9,25.7h24l4.9-25.7h14.1l-12.5,65.9h-14.1l5.2-27.7h-23.9l-5.3,27.7H-229
		L-216.5-850.9z"/>
</g>
<g>
	<path class="st4" d="M252.8-867.2H88.1v3.6c0,2-1.6,3.6-3.6,3.6c-2,0-3.6-1.6-3.6-3.6v-3.6H45.2c-4,0-7.2,3.2-7.2,7.2v31.5
		c0,1.8,0.9,3.5,2.4,4.5c7.1,4.4,11.9,12.3,11.9,21.3c0,9-4.8,16.9-11.9,21.3c-1.5,0.9-2.4,2.7-2.4,4.5v31.5c0,4,3.2,7.2,7.2,7.2H81
		v-3.6c0-2,1.6-3.6,3.6-3.6c2,0,3.6,1.6,3.6,3.6v3.6h164.7c4,0,7.2-3.2,7.2-7.2V-860C260-864,256.8-867.2,252.8-867.2z M88.1-756.2
		c0,2-1.6,3.6-3.6,3.6c-2,0-3.6-1.6-3.6-3.6v-7.2c0-2,1.6-3.6,3.6-3.6c2,0,3.6,1.6,3.6,3.6V-756.2z M88.1-777.7c0,2-1.6,3.6-3.6,3.6
		c-2,0-3.6-1.6-3.6-3.6v-7.2c0-2,1.6-3.6,3.6-3.6c2,0,3.6,1.6,3.6,3.6V-777.7z M88.1-799.2c0,2-1.6,3.6-3.6,3.6
		c-2,0-3.6-1.6-3.6-3.6v-7.2c0-2,1.6-3.6,3.6-3.6c2,0,3.6,1.6,3.6,3.6V-799.2z M88.1-820.6c0,2-1.6,3.6-3.6,3.6
		c-2,0-3.6-1.6-3.6-3.6v-7.2c0-2,1.6-3.6,3.6-3.6c2,0,3.6,1.6,3.6,3.6V-820.6z M88.1-842.1c0,2-1.6,3.6-3.6,3.6
		c-2,0-3.6-1.6-3.6-3.6v-7.2c0-2,1.6-3.6,3.6-3.6c2,0,3.6,1.6,3.6,3.6V-842.1z"/>
	<path class="st5" d="M249.3-745.4H98.9c-2,0-3.6-1.6-3.6-3.6v-107.4c0-2,1.6-3.6,3.6-3.6h150.4c2,0,3.6,1.6,3.6,3.6V-749
		C252.8-747,251.2-745.4,249.3-745.4z"/>
	<path class="st0" d="M171.1-778l-18.6,11.7c-4.1,2.6-9.2-1.2-8-5.8l5.3-21.3L133-807.5c-3.7-3.1-1.7-9.1,3.1-9.5l21.9-1.5l8.2-20.3
		c1.8-4.5,8.1-4.5,9.9,0l8.2,20.3l21.9,1.5c4.8,0.3,6.8,6.4,3.1,9.5l-16.8,14.1l5.3,21.3c1.2,4.7-4,8.4-8,5.8L171.1-778z"/>
	<path class="st6" d="M195.4-781.4c-23.2-1.4-42.9-15.8-51.9-36l-7.4,0.5c-4.8,0.3-6.8,6.4-3.1,9.5l16.8,14.1l-5.3,21.3
		c-1.2,4.7,4,8.4,8,5.8l18.6-11.7l18.6,11.7c4.1,2.6,9.2-1.2,8-5.8L195.4-781.4z"/>
</g>
<circle class="st7" cx="-1130" cy="-489.3" r="123.6"/>
<circle class="st7" cx="-813.4" cy="-489.3" r="123.6"/>
<circle class="st7" cx="-486.8" cy="-489.3" r="123.6"/>
<circle class="st7" cx="-170.2" cy="-489.3" r="123.6"/>
<g>
	<path class="st8" d="M-1131.5-542.2c-31.4-27.5-71.4-3.3-72,29.4c-0.2,8.3,2.2,16.5,7,24h31.1l5.5-9.2c1.6-2.7,5.5-2.8,7.2-0.1
		l11.7,18.3l17-35.9c1.5-3.1,5.9-3.2,7.5-0.2l14.6,27.1h35.4C-1040.3-529.9-1092.1-576.7-1131.5-542.2L-1131.5-542.2z"/>
	<path class="st8" d="M-1108.2-482.7l-11.8-21.9l-16.7,35.2c-1.4,3-5.6,3.3-7.4,0.5l-12.1-19l-3.2,5.4c-0.8,1.3-2.1,2-3.6,2h-26.8
		c0.8,0.9-3.6-3.6,55.3,55.1c1.6,1.6,4.3,1.6,6,0c58.1-57.8,54.5-54.2,55.3-55.1h-31.3C-1106-480.4-1107.5-481.3-1108.2-482.7
		L-1108.2-482.7z"/>
</g>
<g>
	<path class="st8" d="M-808.5-485.5v-13h-9v13c0,2.2-1.8,4-4,4h-13v9h13c2.2,0,4,1.8,4,4v13h9v-13c0-2.2,1.8-4,4-4h13v-9h-13
		C-806.7-481.5-808.5-483.3-808.5-485.5z"/>
	<path class="st8" d="M-863.7-523.5h-5.3c-6.6,0-11.9,5.4-11.9,11.9v69c0,6.6,5.4,11.9,11.9,11.9h5.3V-523.5z"/>
	<path class="st8" d="M-757-523.5h-5.3v92.9h5.3c6.6,0,11.9-5.4,11.9-11.9v-69C-745.1-518.1-750.4-523.5-757-523.5z"/>
	<path class="st8" d="M-855.8-430.6h85.5v-92.9h-13.3V-537c0-6.6-5.4-11.9-11.9-11.9h-35c-6.6,0-11.9,5.4-11.9,11.9v13.5h-13.3
		V-430.6z M-834.5-537c0-2.2,1.8-4,4-4h35c2.2,0,4,1.8,4,4v13.5h-43V-537z M-838.5-489.5h13v-13c0-2.2,1.8-4,4-4h17c2.2,0,4,1.8,4,4
		v13h13c2.2,0,4,1.8,4,4v17c0,2.2-1.8,4-4,4h-13v13c0,2.2-1.8,4-4,4h-17c-2.2,0-4-1.8-4-4v-13h-13c-2.2,0-4-1.8-4-4v-17
		C-842.5-487.7-840.7-489.5-838.5-489.5z"/>
</g>
<g>
	<path class="st8" d="M-528.1-449c-10.7,1.2-19.1,10.2-19.1,21.2v13.1h51.4v-17.7c-1.4,0.2-2.8,0.3-4.3,0.3
		C-511.2-432.1-521.8-438.7-528.1-449z"/>
	<path class="st8" d="M-465.8-449.2c0,7.1,5.8,12.8,12.8,12.8c7.1,0,12.8-5.8,12.8-12.8c0-5.6-3.6-10.3-8.6-12.1v7.8h-8.6v-7.8
		C-462.2-459.5-465.8-454.8-465.8-449.2z"/>
	<path class="st8" d="M-453-483.5c-18.9,0-34.3,15.4-34.3,34.3v34.5h30v-13.6c-9.8-2-17.1-10.6-17.1-21c0-11.8,9.6-21.4,21.4-21.4
		s21.4,9.6,21.4,21.4c0,10.3-7.4,19-17.1,21v13.6h30v-34.5C-418.7-468.1-434.1-483.5-453-483.5z"/>
	<path class="st8" d="M-471.5-487.7c0.8-2.8,1.4-5.6,1.4-8.6v-4.5c-13.1-1.5-24.2-9.5-30-20.7c-5.8,11.2-16.9,19.2-30,20.7v4.5
		c0,13.6,9.2,25.5,22.5,28.9l3.2,0.8v17.4h-13.4c4.7,5.3,11.2,8.6,17.6,8.6c1.4,0,2.9-0.2,4.3-0.5v-8
		C-495.8-466.2-485.8-480.8-471.5-487.7z M-500.1-474.9c-7.1,0-12.8-5.8-12.8-12.8h8.6c0,2.4,1.9,4.3,4.3,4.3s4.3-1.9,4.3-4.3h8.6
		C-487.2-480.7-493-474.9-500.1-474.9z"/>
	<path class="st8" d="M-525.8-457.8h12.8v-2.3c-15.3-5.4-25.7-19.8-25.7-36.2v-12.8h4.3c16.5,0,30-13.4,30-30h8.6
		c0,16.5,13.4,30,30,30h4.3v12.8c0,1.8-0.2,3.5-0.4,5.3c2.9-0.6,5.9-1,9-1c2.9,0,5.8,0.3,8.6,0.9v-13.7c0-30.7-25-55.9-55.7-55.9
		s-55.7,25.3-55.7,55.9v34.3c0,8.2,3.5,15.7,9.2,21.3C-541.1-454.6-533.8-457.8-525.8-457.8z"/>
</g>
<circle class="st7" cx="156.4" cy="-489.3" r="123.6"/>
<g id="Solid_3_">
	<g>
		<path class="st8" d="M90.4-461c-1.3,1.1-2.6,2.3-3.7,3.7l36.7,36.7c1.3-1.1,2.6-2.3,3.7-3.7L90.4-461z"/>
		<path class="st8" d="M80.9-440.8c0,14.4,11.7,26.1,26.1,26.1c4.2,0,8.3-1,12.1-3l-35.2-35.2C81.9-449.1,80.8-445,80.9-440.8
			L80.9-440.8z"/>
		<path class="st8" d="M130.1-428.7c6.7-12.8,1.7-28.5-11.1-35.2c-7.6-3.9-16.6-3.9-24.1,0L130.1-428.7z"/>
		<path class="st8" d="M156.5-443.4h-18.4c0.1,0.9,0.1,1.7,0.1,2.6c0,9.4-4.3,18.4-11.6,24.3c2.6,1.2,5.5,1.8,8.3,1.8h1.3
			c11.2,0,20.2-9.1,20.2-20.2V-443.4z"/>
		<path class="st8" d="M156.5-448.6v-5.2h-21.1c0.8,1.7,1.4,3.4,1.9,5.2H156.5z"/>
		<path class="st8" d="M154.6-529.5h66.5c0.4,0,0.7-0.3,0.7-0.7v-26.7c0-2.2-1.8-3.9-3.9-3.9h-60c-2.2,0-3.9,1.8-3.9,3.9v26.7
			C153.9-529.8,154.2-529.5,154.6-529.5z M211.3-555.6h5.2v20.9h-5.2V-555.6z M200.9-555.6h5.2v20.9h-5.2V-555.6z M190.5-555.6h5.2
			v20.9h-5.2V-555.6z M180-555.6h5.2v20.9H180V-555.6z M169.6-555.6h5.2v20.9h-5.2V-555.6z M159.1-555.6h5.2v20.9h-5.2V-555.6z"/>
		<path class="st8" d="M219.8-511.3h-63.9c-4,0-7.2,3.2-7.2,7.2v9.1c1.1,0.6,2.1,1.3,3,2H227v-11.1C227-508,223.8-511.3,219.8-511.3
			z"/>
		<path class="st8" d="M161.8-472.8v37.8c0,1.5-0.1,3.1-0.4,4.6H227v-57.4h-70.2C160-483.4,161.8-478.2,161.8-472.8z M219.2-438.2
			h-31.3v-5.2h31.3V-438.2z M167-456.5h47v-18.3h-47v-5.2h49.6c1.4,0,2.6,1.2,2.6,2.6v23.5c0,1.4-1.2,2.6-2.6,2.6H167V-456.5z
			 M167-443.4h15.7v5.2H167V-443.4z"/>
		<path class="st8" d="M161.8-524.3h52.2v7.8h-52.2V-524.3z"/>
		<path class="st8" d="M153.6-416.3c1.7,1,3.6,1.6,5.5,1.6h57.4c5.8,0,10.4-4.7,10.4-10.4h-67.2
			C158.4-421.8,156.3-418.8,153.6-416.3z"/>
		<path class="st8" d="M156.5-472.8c0-11.2-9.1-20.2-20.2-20.2H135c-11.2,0-20.2,9.1-20.2,20.2v1.6c7.1,1.8,13.3,6.1,17.6,12.1h24.2
			V-472.8z"/>
		<path class="st8" d="M125.2-508.7l4.6-8.4l8.4-4.6l-8.4-4.6l-4.6-8.4l-4.6,8.4l-8.4,4.6l8.4,4.6L125.2-508.7z"/>
		<path class="st8" d="M93.3-530.2l3.2-5.9l5.9-3.2l-5.9-3.2l-3.2-5.9l-3.2,5.9l-5.9,3.2l5.9,3.2L93.3-530.2z"/>
	</g>
</g>
<g>
	<path class="st8" d="M-140.9-540.1c-0.3,2.5-2.5,4.3-5,4.1c-9.7-1-18,6-19,15.4c-0.3,2.6-2.6,4.3-5,4.1
		c-13.9-1.5-24-13.4-23.6-26.8c0.1-6.8,2.8-13.2,7.7-18.1c10.3-10.5,27-10.5,37.3,0C-142.8-555.8-140.1-548-140.9-540.1z"/>
	<path class="st8" d="M-102.8-510.5c3.4,11.9,3.6,24.8,0,37.1c7.9-3.7,13.2-10.7,13.2-18.6S-94.9-506.8-102.8-510.5L-102.8-510.5z
		 M-132-537.9c-1.3,6.4-6.9,11-13.4,11c-1,0-1.6-0.1-2.3-0.1c-4.2,0-7.7,3.1-8.1,7.3c-0.8,7.4-7.4,12.9-15,12.2
		c-16.4-1.7-29.2-14.4-31.4-30.3c-25.5,19.5-30.7,56.5-9.9,82.3c10.6,13.1,26.9,21.6,45,21.6c31.9,0,57.9-26,57.9-57.9
		C-109.3-510.7-118.2-527.3-132-537.9L-132-537.9z M-195.4-497.3c-1.8,1.8-4.7,1.8-6.4,0c-1.8-1.8-1.8-4.6,0-6.4
		c6.5-6.5,17.1-6.5,23.6,0c1.8,1.8,1.8,4.6,0,6.4c-1.8,1.8-4.6,1.8-6.4,0C-187.6-500.2-192.4-500.2-195.4-497.3z M-151.9-466.9
		c-8.4,8.4-22,8.4-30.4,0c-1.8-1.8-1.8-4.7,0-6.4c1.8-1.8,4.7-1.8,6.4,0c4.8,4.8,12.7,4.8,17.6,0c1.8-1.8,4.7-1.8,6.4,0
		C-150.1-471.6-150.1-468.7-151.9-466.9z M-132.2-497.3c-1.8,1.8-4.6,1.8-6.4,0c-3-3-7.7-3-10.7,0c-1.8,1.8-4.7,1.8-6.4,0
		c-1.8-1.8-1.8-4.6,0-6.4c6.5-6.5,17.1-6.5,23.6,0C-130.5-501.9-130.5-499.1-132.2-497.3z M-127.2-438.2
		c-23.4,17.4-55.3,17.6-78.9,0.6c-4.4,5-7.8,10.9-9.9,17.2c-0.8,2.4,0.5,4.9,2.9,5.7c1.1,0.4-4.8,0.2,92.1,0.2c3.1,0,5.3-3,4.3-6
		C-118.9-427-122.5-433-127.2-438.2L-127.2-438.2z M-231.4-510.5c-7.9,3.7-13.2,10.7-13.2,18.6s5.3,14.8,13.2,18.6
		C-234.9-485.2-235-498.2-231.4-510.5z"/>
</g>
<circle class="st7" cx="-1132.5" cy="-165.8" r="122.1"/>
<circle class="st7" cx="-819.9" cy="-165.8" r="122.1"/>
<circle class="st7" cx="-487.3" cy="-165.8" r="122.1"/>
<circle class="st7" cx="-173.8" cy="-165.8" r="122.1"/>
<circle class="st7" cx="148.8" cy="-165.8" r="122.1"/>
<g>
	<path class="st8" d="M201.6-214c-7,0-12.6,5.7-12.6,12.6v4.2h25.3v-4.2C214.2-208.3,208.6-214,201.6-214z"/>
	<path class="st8" d="M201.6-95.8c1.8,0,3.4-1.2,4-2.9l7.5-22.7h-22.9l7.5,22.7C198.2-97,199.8-95.8,201.6-95.8z"/>
	<path class="st8" d="M189-188.7h25.3v58.9H189V-188.7z"/>
	<path class="st8" d="M125.6-231.1c-2.3,0-4.2,1.9-4.2,4.2v12.6h25.3v-12.6c0-2.3-1.9-4.2-4.2-4.2H125.6z"/>
	<path class="st8" d="M79-87.4h71.9c-2.6-3.5-4.3-7.9-4.3-12.6c0-2.4-1.9-4.2-4.2-4.2H74.8c-2.4,0-4.2,1.9-4.2,4.2v4.2
		C70.5-91.2,74.3-87.4,79-87.4z"/>
	<path class="st8" d="M168.5-87.4c6.8-0.5,12-6.3,12-13.1v-117.9c0-2.3-1.9-4.2-4.2-4.2H155v12.6c0,2.3-1.9,4.2-4.2,4.2h-33.7
		c-2.3,0-4.2-1.9-4.2-4.2v-12.6H91.6c-2.3,0-4.2,1.9-4.2,4.2v105.8h55c7,0,12.6,5.7,12.6,12.6C155-92.8,161.1-87,168.5-87.4z
		 M134-184.5h25.1c2.3,0,4.2,1.7,4.3,4c0.1,2.4-1.8,4.4-4.2,4.4h-25.1c-2.3,0-4.2-1.7-4.3-4C129.7-182.5,131.6-184.5,134-184.5
		L134-184.5z M163.4-154.9c-0.1,2.3-2.1,4-4.3,4h-25c-2.3,0-4.2-1.7-4.3-4c-0.1-2.4,1.8-4.4,4.2-4.4h25.3
		C161.6-159.3,163.5-157.3,163.4-154.9L163.4-154.9z M105.9-191.8c1.7-1.5,4.3-1.4,5.9,0.2l5.4,5.4l5.4-5.4c1.6-1.6,4.2-1.7,5.9-0.2
		c1.8,1.6,1.8,4.4,0.1,6.1l-8.4,8.4c-0.8,0.8-1.9,1.2-3,1.2c-1.1,0-2.2-0.4-3-1.2l-8.4-8.4C104-187.4,104.1-190.2,105.9-191.8
		L105.9-191.8z M105.9-166.6c1.7-1.5,4.3-1.4,5.9,0.2l5.4,5.4l5.4-5.4c1.6-1.6,4.2-1.7,5.9-0.2c1.8,1.6,1.8,4.4,0.1,6.1l-8.4,8.4
		c-0.8,0.8-1.9,1.2-3,1.2c-1.1,0-2.2-0.4-3-1.2l-8.4-8.4C104-162.2,104.1-165,105.9-166.6z M120.1-126.8c-0.8,0.8-1.9,1.2-3,1.2
		c-1.1,0-2.2-0.4-3-1.2l-8.3-8.3c-1.6-1.6-1.7-4.2-0.2-5.9c1.6-1.8,4.4-1.8,6.1-0.1l5.4,5.4l5.4-5.4c1.6-1.6,4.2-1.7,5.9-0.2
		c1.8,1.6,1.8,4.4,0.1,6.1L120.1-126.8z M134-125.6c-2.4,0-4.3-2-4.2-4.4c0.1-2.3,2.1-4,4.3-4h25c2.3,0,4.2,1.7,4.3,4
		c0.1,2.4-1.8,4.4-4.2,4.4H134z"/>
</g>
<path class="st8" d="M-1062-132.1l21.1-21.1l-21.1-21.1l3.4-3.4c5.9-5.9,5.9-15.5,0-21.4c-2.9-2.9-6.6-4.4-10.7-4.4
	c-4,0-7.8,1.6-10.7,4.4l-3.4,3.4l-21.1-21.1l-6.2,6.2v9.9c11,2.6,19.3,12.6,19.3,24.4c0,11.8-8.2,21.8-19.3,24.4v30.6h-18.3
	l-3.6,3.6l28.2,28.2l21.1-21.1l2.9,2.9c5.9,5.9,15.5,5.9,21.4,0c5.9-5.9,5.9-15.5,0-21.4L-1062-132.1z"/>
<path class="st8" d="M-1120.7-131.4v-29.9h4.1c8.3,0,15.1-6.8,15.1-15.1c0-8.3-6.8-15.1-15.1-15.1h-4.1v-29.9h-29.9v-4.8
	c0-8.3-6.8-15.1-15.1-15.1c-8.3,0-15.1,6.8-15.1,15.1v4.8h-29.9v29.9h4.2c7.3,0,13.4,5.2,14.8,12.1c0.6,0.8,1,1.9,1,3s-0.4,2.1-1,3
	c-1.4,6.9-7.5,12.1-14.8,12.1h-4.2v29.9h29.9v-4.8c0-8.3,6.8-15.1,15.1-15.1c8.3,0,15.1,6.8,15.1,15.1v4.8H-1120.7z"/>
<g>
	<path class="st8" d="M-778.2-154.5c0-0.1-0.1-0.3-0.1-0.4l-11.7-32.2h-46.8l-11.9,31.9c-1.7,4.6-2.9,9.4-3.6,14.3l15.4-8.5
		c8.4-4.8,18.7-4.4,26.7,1c4.5,3,10.2,3.6,15.2,1.5L-778.2-154.5z"/>
	<path class="st8" d="M-853.1-129.7c0,0.4,0,0.9,0,1.3c0.4,9.1,2.5,18,6.4,26.3l6.5,13.9h52.7l6.6-13.7c3.9-8.3,6.2-17.1,6.6-26.2
		c0.3-5.8-0.2-11.6-1.4-17.2l-15.7,7l-0.1,0c-7.9,3.4-17,2.5-24.1-2.3c-5.1-3.4-11.6-3.7-16.9-0.6L-853.1-129.7z"/>
	<path class="st8" d="M-792-196.4l0-10.5l18.7,0.1l0-4.7c0.1-20.3-16.3-36.8-36.6-36.9H-865l0,21.3l11.1,0l-7.7,37.8l9.2,1.9
		l7.1-35.1l10.4,12.5l0,13.7H-792z"/>
</g>
<g>
	<path class="st8" d="M-430.1-144.1v-30h-30v22.5c0.9,2.4,1.5,4.9,1.9,7.5H-430.1z M-445.1-169.1c5.5,0,10,4.5,10,10
		c0,5.5-4.5,10-10,10c-5.5,0-10-4.5-10-10C-455.1-164.6-450.6-169.1-445.1-169.1z"/>
	<path class="st8" d="M-510.1-164.1c10.5,0,19.5-3.3,25.8-9.5c5.9-5.8,9.2-14,9.2-23s-3.3-17.1-9.2-23c-6.3-6.2-15.3-9.5-25.8-9.5
		c-10.5,0-19.5,3.3-25.8,9.5c-5.9,5.8-9.2,14-9.2,23s3.3,17.1,9.2,23C-529.6-167.4-520.7-164.1-510.1-164.1L-510.1-164.1z
		 M-495.1-204.1c1.4,0,2.5,1.1,2.5,2.5c0,1.4-1.1,2.5-2.5,2.5c-1.4,0-2.5-1.1-2.5-2.5C-497.6-203-496.5-204.1-495.1-204.1z
		 M-525.1-204.1c1.4,0,2.5,1.1,2.5,2.5c0,1.4-1.1,2.5-2.5,2.5s-2.5-1.1-2.5-2.5C-527.6-203-526.5-204.1-525.1-204.1z M-527.6-190.3
		c1.4,0,2.5,1.1,2.5,2.5c0,5.6,5.4,10.2,12.5,11.1v-7.9c-0.3-0.1-0.5-0.3-0.8-0.5l-4.2-3c-1.6-1.1-2.5-3-2.5-4.9c0-3.3,2.6-6,5.8-6
		h8.5c3.2,0,5.8,2.7,5.8,6c0,2-0.9,3.8-2.5,4.9l-4.2,3c-0.2,0.2-0.5,0.3-0.8,0.5v7.9c7.1-0.9,12.5-5.5,12.5-11.1
		c0-1.4,1.1-2.5,2.5-2.5s2.5,1.1,2.5,2.5c0,9-9,16.2-20,16.2c-11,0-20-7.3-20-16.2C-530.1-189.2-529-190.3-527.6-190.3
		C-527.6-190.3-527.6-190.3-527.6-190.3z"/>
	<circle class="st8" cx="-445.1" cy="-159.1" r="5"/>
	<path class="st8" d="M-509.8-189.2l4.2-3c0.3-0.2,0.4-0.5,0.4-0.9c0-0.5-0.3-1-0.8-1h-8.5c-0.4,0-0.8,0.5-0.8,1
		c0,0.3,0.1,0.7,0.4,0.9l4.2,3C-510.3-189-510-189-509.8-189.2L-509.8-189.2z"/>
	<path class="st8" d="M-492.1-162.5c5.6,6.6,9,15.9,9.5,26.1c4.8,0.7,9.1,3.3,12.2,7.1c4.2-1,7.4-4.6,7.7-8.9l-0.2-3.2
		c-1.3-12.3-8.1-21.6-19.5-27.1C-485.3-166.1-488.6-164-492.1-162.5z"/>
	<path class="st8" d="M-473.8-213.3c6-3.5,8-11.1,4.5-17.1s-11.1-8-17.1-4.5c-1.9,1.1-3.5,2.8-4.6,4.7c3.8,1.7,7.3,4.1,10.2,7
		C-477.9-220.3-475.6-216.9-473.8-213.3z"/>
	<path class="st8" d="M-445.1-197.2l-12.7,18.1h25.4L-445.1-197.2z"/>
	<path class="st8" d="M-529.2-230.2c-3.4-6-11-8.2-17-4.8c-6,3.4-8.2,11-4.8,17c1.1,2,2.7,3.6,4.6,4.7c1.7-3.7,4.1-7,7-9.8
		C-536.4-226-533-228.4-529.2-230.2z"/>
	<ellipse class="st8" cx="-485.1" cy="-114.1" rx="15" ry="17.5"/>
	<path class="st8" d="M-457.6-119.1v-10h-3.9c-1.7,1.9-3.8,3.3-6.1,4.1c0.9,1.9,1.6,3.8,2,5.9H-457.6z"/>
	<path class="st8" d="M-487.7-136.4c-0.5-9.8-4-18.7-9.6-24.3c-4.2,1.1-8.5,1.7-12.8,1.7c-4.3,0-8.6-0.5-12.8-1.6
		c-5.6,5.7-9.1,14.6-9.6,24.3c9.8,1.4,17.4,10.9,17.4,22.3c0,3.7-0.8,7.3-2.4,10.7c4.6,2.4,10.2,2.4,14.8,0c-1.6-3.3-2.4-7-2.4-10.7
		C-505.1-125.5-497.5-135-487.7-136.4L-487.7-136.4z"/>
	<ellipse class="st8" cx="-535.1" cy="-114.1" rx="15" ry="17.5"/>
	<path class="st8" d="M-442.6-109.1h30v-30h-30V-109.1z M-437.3-117.7l7.5-15c0.6-1.2,2.1-1.7,3.4-1.1c0.5,0.2,0.9,0.6,1.1,1.1
		l7.5,15c0.6,1.2,0.1,2.7-1.1,3.4c-0.3,0.2-0.7,0.3-1.1,0.3h-15c-1.4,0-2.5-1.1-2.5-2.5C-437.6-117-437.5-117.4-437.3-117.7z"/>
	<path class="st8" d="M-537.5-136.4c0.5-10.1,3.9-19.5,9.5-26.1c-3.5-1.5-6.8-3.5-9.7-6.1c-11.4,5.5-18.2,14.8-19.5,27.1l-0.2,3.2
		c0.4,4.4,3.5,8,7.8,8.9C-546.6-133.2-542.4-135.8-537.5-136.4z"/>
	<path class="st8" d="M-427.6-126l-3.5,6.9h6.9L-427.6-126z"/>
	<path class="st8" d="M-457.7-138.4c0,0.1,0,0.2,0,0.3c-0.1,1.4-0.4,2.7-0.8,4h3.4c1.4,0,2.5,1.1,2.5,2.5v15c0,1.4-1.1,2.5-2.5,2.5
		h-10c0,1.7-0.2,3.4-0.5,5h18v-30h-10.1L-457.7-138.4z"/>
</g>
<g id="solid_1_">
	<path class="st8" d="M-194.7-177.7h-29.1c-6.5,0-11.7,5.3-11.7,11.7v4.3c0,13,10.5,23.5,23.5,23.5s23.5-10.5,23.5-23.5v-9.9
		C-188.5-174.9-191.3-177.7-194.7-177.7z"/>
	<path class="st8" d="M-233.5-143l-9.2,7.4c2.3,3.2,6.8,3.8,9.9,1.5c0.1-0.1,0.3-0.2,0.4-0.3l4.3-3.7
		C-230-139.5-231.9-141.1-233.5-143z"/>
	<path class="st8" d="M-111.8-161.6v-4.3c0-6.5-5.3-11.7-11.7-11.7h-29.1c-3.4,0-6.2,2.8-6.2,6.2v9.9c0,13,10.5,23.5,23.5,23.5
		C-122.3-138.1-111.8-148.6-111.8-161.6z"/>
	<path class="st8" d="M-119.3-138.1l4.3,3.7c3,2.6,7.5,2.2,10-0.8c0.1-0.1,0.2-0.3,0.3-0.4l-9.2-7.4
		C-115.4-141.1-117.3-139.5-119.3-138.1z"/>
	<path class="st8" d="M-111.1-185.8c-2.8-1.2-5.7-1.7-8.8-1.7h-34.3c-3,0-5.9,0.2-8.9,0.7l-1.2,0.2c-6.6,1-13.3,1-19.8-0.1
		c-1.5-0.2-3.1-0.4-4.7-0.6c-1.6-0.1-3.2-0.2-4.7-0.2h-34c-5.7,0-11.2,2.1-15.4,6v5.3l3.8,3.8c2.6-6.2,8.7-10.2,15.4-10.2h29.1
		c5.5,0,10.2,4.1,11,9.5l0.6-1.2c2.6-5.2,8.9-7.3,14.1-4.7c2,1,3.7,2.7,4.7,4.7l0.6,1.2c0.8-5.5,5.5-9.5,11-9.5h29.1
		c6.7,0,12.8,4,15.4,10.2l3.8-3.8v-5.3C-106.4-183.4-108.6-184.8-111.1-185.8z"/>
</g>
<g>
	<g>
		<path class="st9" d="M-1210.8,143c-0.2-0.5-0.6-0.9-1.2-1l-15.7-2.3l-7-14.2c-0.2-0.5-0.8-0.8-1.3-0.8c-0.6,0-1.1,0.3-1.3,0.8
			l-7,14.2l-15.7,2.3c-0.6,0.1-1,0.5-1.2,1c-0.2,0.5,0,1.1,0.4,1.5l11.3,11l-2.7,15.6c-0.1,0.6,0.1,1.1,0.6,1.4
			c0.5,0.3,1.1,0.4,1.6,0.1l14-7.4l14,7.4c0.2,0.1,0.5,0.2,0.7,0.2c0.3,0,0.6-0.1,0.9-0.3c0.5-0.3,0.7-0.9,0.6-1.4l-2.7-15.6
			l11.3-11C-1210.8,144.2-1210.6,143.6-1210.8,143z"/>
		<path class="st10" d="M-1210.8,143c-0.2-0.5-0.6-0.9-1.2-1l-15.7-2.3l-7-14.2c-0.2-0.5-0.8-0.8-1.3-0.8v40.7l14,7.4
			c0.2,0.1,0.5,0.2,0.7,0.2c0.3,0,0.6-0.1,0.9-0.3c0.5-0.3,0.7-0.9,0.6-1.4l-2.7-15.6l11.3-11
			C-1210.8,144.2-1210.6,143.6-1210.8,143z"/>
	</g>
	<g>
		<path class="st9" d="M-1156.1,143c-0.2-0.5-0.6-0.9-1.2-1l-15.7-2.3l-7-14.2c-0.2-0.5-0.8-0.8-1.3-0.8c-0.6,0-1.1,0.3-1.3,0.8
			l-7,14.2l-15.7,2.3c-0.6,0.1-1,0.5-1.2,1c-0.2,0.5,0,1.1,0.4,1.5l11.3,11l-2.7,15.6c-0.1,0.6,0.1,1.1,0.6,1.4
			c0.5,0.3,1.1,0.4,1.6,0.1l14-7.4l14,7.4c0.2,0.1,0.5,0.2,0.7,0.2c0.3,0,0.6-0.1,0.9-0.3c0.5-0.3,0.7-0.9,0.6-1.4l-2.7-15.6
			l11.3-11C-1156.1,144.2-1156,143.6-1156.1,143z"/>
		<path class="st10" d="M-1156.1,143c-0.2-0.5-0.6-0.9-1.2-1l-15.7-2.3l-7-14.2c-0.2-0.5-0.8-0.8-1.3-0.8v40.7l14,7.4
			c0.2,0.1,0.5,0.2,0.7,0.2c0.3,0,0.6-0.1,0.9-0.3c0.5-0.3,0.7-0.9,0.6-1.4l-2.7-15.6l11.3-11C-1156.1,144.2-1156,143.6-1156.1,143z
			"/>
	</g>
	<g>
		<path class="st9" d="M-1101.5,143c-0.2-0.5-0.6-0.9-1.2-1l-15.7-2.3l-7-14.2c-0.2-0.5-0.8-0.8-1.3-0.8c-0.6,0-1.1,0.3-1.3,0.8
			l-7,14.2l-15.7,2.3c-0.6,0.1-1,0.5-1.2,1c-0.2,0.5,0,1.1,0.4,1.5l11.3,11l-2.7,15.6c-0.1,0.6,0.1,1.1,0.6,1.4
			c0.5,0.3,1.1,0.4,1.6,0.1l14-7.4l14,7.4c0.2,0.1,0.5,0.2,0.7,0.2c0.3,0,0.6-0.1,0.9-0.3c0.5-0.3,0.7-0.9,0.6-1.4l-2.7-15.6
			l11.3-11C-1101.4,144.2-1101.3,143.6-1101.5,143z"/>
		<path class="st10" d="M-1101.5,143c-0.2-0.5-0.6-0.9-1.2-1l-15.7-2.3l-7-14.2c-0.2-0.5-0.8-0.8-1.3-0.8v40.7l14,7.4
			c0.2,0.1,0.5,0.2,0.7,0.2c0.3,0,0.6-0.1,0.9-0.3c0.5-0.3,0.7-0.9,0.6-1.4l-2.7-15.6l11.3-11
			C-1101.4,144.2-1101.3,143.6-1101.5,143z"/>
	</g>
	<g>
		<path class="st9" d="M-1046.8,143c-0.2-0.5-0.6-0.9-1.2-1l-15.7-2.3l-7-14.2c-0.2-0.5-0.8-0.8-1.3-0.8c-0.6,0-1.1,0.3-1.3,0.8
			l-7,14.2l-15.7,2.3c-0.6,0.1-1,0.5-1.2,1c-0.2,0.5,0,1.1,0.4,1.5l11.3,11l-2.7,15.6c-0.1,0.6,0.1,1.1,0.6,1.4
			c0.5,0.3,1.1,0.4,1.6,0.1l14-7.4l14,7.4c0.2,0.1,0.5,0.2,0.7,0.2c0.3,0,0.6-0.1,0.9-0.3c0.5-0.3,0.7-0.9,0.6-1.4l-2.7-15.6
			l11.3-11C-1046.8,144.2-1046.6,143.6-1046.8,143z"/>
		<path class="st10" d="M-1046.8,143c-0.2-0.5-0.6-0.9-1.2-1l-15.7-2.3l-7-14.2c-0.2-0.5-0.8-0.8-1.3-0.8v40.7l14,7.4
			c0.2,0.1,0.5,0.2,0.7,0.2c0.3,0,0.6-0.1,0.9-0.3c0.5-0.3,0.7-0.9,0.6-1.4l-2.7-15.6l11.3-11
			C-1046.8,144.2-1046.6,143.6-1046.8,143z"/>
	</g>
	<g>
		<path class="st11" d="M-992.2,143c-0.2-0.5-0.6-0.9-1.2-1l-15.7-2.3l-7-14.2c-0.2-0.5-0.8-0.8-1.3-0.8c-0.6,0-1.1,0.3-1.3,0.8
			l-7,14.2l-15.7,2.3c-0.6,0.1-1,0.5-1.2,1c-0.2,0.5,0,1.1,0.4,1.5l11.3,11l-2.7,15.6c-0.1,0.6,0.1,1.1,0.6,1.4
			c0.5,0.3,1.1,0.4,1.6,0.1l14-7.4l14,7.4c0.2,0.1,0.5,0.2,0.7,0.2c0.3,0,0.6-0.1,0.9-0.3c0.5-0.3,0.7-0.9,0.6-1.4l-2.7-15.6
			l11.3-11C-992.1,144.2-992,143.6-992.2,143z"/>
		<path class="st11" d="M-992.2,143c-0.2-0.5-0.6-0.9-1.2-1l-15.7-2.3l-7-14.2c-0.2-0.5-0.8-0.8-1.3-0.8v40.7l14,7.4
			c0.2,0.1,0.5,0.2,0.7,0.2c0.3,0,0.6-0.1,0.9-0.3c0.5-0.3,0.7-0.9,0.6-1.4l-2.7-15.6l11.3-11C-992.1,144.2-992,143.6-992.2,143z"/>
	</g>
</g>
<g>
	<circle class="st12" cx="-808.8" cy="151.4" r="120.9"/>
	<circle class="st13" cx="-808.8" cy="151.4" r="102.6"/>
	<g>
		<path class="st0" d="M-852.1,192.8c0,0-16.8-16.2-16.8-42.8s11.4-39.5,29.2-43.3c17.9-3.8,33,7.6,43.8,16.2c0,0-14.6-6-27.6,4.3
			c-13,10.3-16.8,32.5,0.5,46C-822.9,173.3-852.1,160.8-852.1,192.8z"/>
		<path class="st0" d="M-814.8,177.1c0,0,8.7,4.3,18.9,0c10.3-4.3,11.4-6.5,13.5-10.3c2.2-3.8,5.4-9.7,11.9-10.8
			c6.5-1.1,15.8,0.2,20,9.2c4.9,10.3,0,15.7,0,15.7s-11.4,13.5-27.6,13.5C-794.2,194.4-805.6,184.1-814.8,177.1z"/>
		<path class="st0" d="M-763.4,194.9c0,0-6.5,7-15.2,10.8c-8.7,3.8-16.2,6-31.4,5.4c-15.2-0.5-21.6-3.8-25.4-5.4
			c-3.8-1.6-12.4-7-13-16.2c-0.5-9.2,7-14.6,13-15.2c6-0.5,14.1,3.8,18.9,6.5c4.9,2.7,15.7,11.9,20.6,13.5
			C-791,196-778.5,202-763.4,194.9z"/>
		<path class="st0" d="M-847.8,105.1c0,0,6.5-7,15.2-10.8c8.7-3.8,16.2-6,31.4-5.4c15.2,0.5,21.6,3.8,25.4,5.4s12.4,7,13,16.2
			c0.5,9.2-7,14.6-13,15.2c-6,0.5-14.1-3.8-18.9-6.5c-4.9-2.7-15.7-11.9-20.6-13.5C-820.2,104-832.7,98.1-847.8,105.1z"/>
		<path class="st0" d="M-789.9,125.6c0,0,13,7.6,23.3,0.5c10.3-7,7.6-18.9,7.6-18.9s17.2,15.2,6.5,28.7c-10.3,13-24.9,5.4-27.1,1.6
			C-781.8,133.8-786.1,128.3-789.9,125.6z"/>
	</g>
</g>
<path class="st4" d="M464.2,41c-59.2,0-107.2,48-107.2,107.2s48,107.2,107.2,107.2s107.2-48,107.2-107.2S523.4,41,464.2,41z
	 M510.5,155.1c-1.8,1.8-4.3,2.8-6.9,2.8H502v31.6c0,6.3-5.1,11.3-11.3,11.3h-16.8c-1.7,0-3.1-1.4-3.1-3.1V173c0-2.9-2.3-5.2-5.2-5.2
	h-9.9c-2.9,0-5.2,2.3-5.2,5.2v24.8c0,1.7-1.4,3.1-3.1,3.1h-16.8c-6.3,0-11.3-5.1-11.3-11.3v-31.6h-1.7c-0.1,0-0.2,0-0.3,0
	c-2.4-0.1-4.7-1.1-6.4-2.8c-3.8-3.8-3.8-9.9,0-13.7c0,0,0,0,0,0l42.9-42.9c1.8-1.8,4.3-2.8,6.9-2.8c2.6,0,5,1,6.9,2.8l43,43
	c0,0,0,0,0,0C514.2,145.2,514.2,151.3,510.5,155.1z"/>
<path class="st4" d="M-487.2,21.5c-67.4,0-122,54.6-122,122s54.6,122,122,122s122-54.6,122-122S-419.9,21.5-487.2,21.5z
	 M-480.5,84.1h17v25.5h-17V84.1z M-506,84.1h17v25.5h-17V84.1z M-535.4,87c0.6-1.7,2.2-2.9,4-2.9h17v25.5H-543L-535.4,87z
	 M-433.8,135v55.2c0,7-5.7,12.7-12.7,12.7h-21.2v-46.7c0-2.3-1.9-4.2-4.2-4.2h-25.5c-2.3,0-4.2,1.9-4.2,4.2v46.7h-21.2
	c-7,0-12.7-5.7-12.7-12.7V135c0,0,0-0.1,0-0.1c7.5,5.8,18,5.8,25.5,0c7.6,5.6,17.9,5.6,25.5,0c7.6,5.6,17.9,5.6,25.5,0
	C-451.8,140.7-441.3,140.7-433.8,135C-433.8,134.9-433.8,134.9-433.8,135z M-446.6,130.7c-3.7,0-7.2-1.6-9.5-4.4
	c-0.1-0.1-0.1-0.1-0.2-0.2c-1.8-1.7-4.5-1.6-6.2,0.2c-0.3,0.3-0.6,0.7-1,1c-5.3,4.7-13.4,4.3-18.1-1c-0.1-0.1-0.1-0.1-0.2-0.2
	c-1.8-1.7-4.5-1.6-6.2,0.2c-0.3,0.3-0.6,0.7-1,1c-5.3,4.7-13.4,4.3-18.1-1c-0.1-0.1-0.1-0.1-0.2-0.2c-1.8-1.7-4.5-1.6-6.2,0.2
	c-2.4,2.8-5.9,4.4-9.5,4.4c-7,0-12.7-5.7-12.7-12.7h101.8C-433.8,125-439.5,130.7-446.6,130.7z M-455.1,109.5V84.1h17
	c1.8,0,3.4,1.2,4,2.9l7.5,22.6H-455.1z"/>
<path class="st4" d="M-169.9,26.7c-65.3,0-118.3,52.9-118.3,118.3s52.9,118.3,118.3,118.3S-51.7,210.3-51.7,145
	S-104.6,26.7-169.9,26.7z M-171.6,210.5c-5.5,0.1-11.1-2.4-14.6-7.6h0.7h27.9h0.7C-160.6,208.1-166.1,210.6-171.6,210.5z
	 M-142.8,196.3h-58.3c-8,0-14.4-6.5-14.4-14.4c0-3.9,1.5-7.5,4.2-10.2l6.2-6.2c1.3-1.3,2.1-3,2.3-4.8c0-0.1-0.2,1.7,4.6-38.1
	c0.6-6.6,3.7-12.6,8.5-17.1c7.4-6.9,17.5-8.6,26.3-5.6l0-0.2c3.6,1.1,7,3.1,10,5.8c4.9,4.5,7.9,10.6,8.5,17.1
	c4.8,39.8,4.6,38.1,4.6,38.1c0.2,1.8,1,3.5,2.3,4.8l1.7,1.7l-0.4,0.3l4.1,4.1c2.7,2.7,4.2,6.4,4.2,10.2
	C-128.4,189.8-134.9,196.3-142.8,196.3z"/>
<g>
	<path class="st4" d="M194,113.8c-2-0.4-3.9,0.9-4.3,2.8l-7.2,36.1c-0.4,2,0.9,3.9,2.8,4.3c0.2,0,0.5,0.1,0.7,0.1
		c1.7,0,3.2-1.2,3.5-2.9l7.2-36.1C197.3,116.1,196,114.2,194,113.8z"/>
	<path class="st4" d="M151.5,31.8c-61.7,0-111.8,50-111.8,111.8s50,111.8,111.8,111.8s111.8-50,111.8-111.8S213.2,31.8,151.5,31.8z
		 M204,116.3l-8.9,41.5c-0.8,3.7-4.1,6.4-8,6.4H116l0.9,6.4c0.1,0.4,0.4,0.8,0.9,0.8h71.9c2,0,3.6,1.6,3.6,3.6c0,2-1.6,3.6-3.6,3.6
		h-7.8c0.4,1.1,0.6,2.3,0.6,3.6c0,6-4.9,10.8-10.8,10.8c-6,0-10.8-4.9-10.8-10.8c0-1.3,0.2-2.5,0.6-3.6h-19.3
		c0.4,1.1,0.6,2.3,0.6,3.6c0,6-4.9,10.8-10.8,10.8c-6,0-10.8-4.9-10.8-10.8c0-1.3,0.2-2.5,0.6-3.6h-3.9c-4,0-7.5-3-8.1-7l-1.5-10.5
		c0,0,0,0,0,0l-7.1-50.6c0,0,0,0,0,0l-1.2-8.7c-0.1-0.4-0.4-0.8-0.9-0.8h-6.9c-2,0-3.6-1.6-3.6-3.6c0-2,1.6-3.6,3.6-3.6h6.9
		c4,0,7.5,3,8.1,7l0.8,5.6H196c2.5,0,4.8,1.1,6.3,3C203.9,111.4,204.5,113.9,204,116.3z"/>
</g>
<path class="st4" d="M791.6,42.2c-61.5,0-111.4,49.9-111.4,111.4S730.1,265,791.6,265S903,215.1,903,153.6S853.1,42.2,791.6,42.2z
	 M786.7,99.2c13.8,0,25,11.2,25,25s-11.2,25-25,25c-13.8,0-25-11.2-25-25S772.9,99.2,786.7,99.2z M731.8,208.1
	c0-30.3,24.6-54.9,54.9-54.9c30.3,0,54.9,24.6,54.9,54.9H731.8z"/>
</svg>
